# xmcd
#
# Track frame offsets:
#	150
#	19046
#	36095
#	52589
#	66770
#	83997
#	97988
#	116920
#	133126
#	145264
#	162068
#
# Disc length: 2398 seconds
#
# Revision: 0
# Processed by: cddbd v1.5.2PL0 Copyright (c) Steve Scherf et al.
# Submitted via: EZCDAudioConverter 1.3.4.1
#
DISCID=8b095c0b
DTITLE=June - Mintys smėlyje
DYEAR=2000
DGENRE=country
TTITLE0=Mintys smėlyje
TTITLE1=Mjestas
TTITLE2=Debesys
TTITLE3=Mergaite Kregżdute
TTITLE4=Narkties Melodija
TTITLE5=Tu Kiskeli, Lelimoji
TTITLE6=Kaledos (Baltas menno pro debesi sviete)
TTITLE7=Laiskas Mamai
TTITLE8=Medis
TTITLE9=Tavo Lupos
TTITLE10=Sudie
EXTD=
EXTT0=
EXTT1=
EXTT2=
EXTT3=
EXTT4=
EXTT5=
EXTT6=
EXTT7=
EXTT8=
EXTT9=
EXTT10=
PLAYORDER=
